<?xml version="1.0" encoding="UTF-8" standalone="no"?>
<!-- Created with Inkscape (http://www.inkscape.org/) -->

<svg
   xmlns:dc="http://purl.org/dc/elements/1.1/"
   xmlns:cc="http://creativecommons.org/ns#"
   xmlns:rdf="http://www.w3.org/1999/02/22-rdf-syntax-ns#"
   xmlns:svg="http://www.w3.org/2000/svg"
   xmlns="http://www.w3.org/2000/svg"
   xmlns:xlink="http://www.w3.org/1999/xlink"
   xmlns:sodipodi="http://sodipodi.sourceforge.net/DTD/sodipodi-0.dtd"
   xmlns:inkscape="http://www.inkscape.org/namespaces/inkscape"
   width="512"
   height="256"
   viewBox="0 0 512 256"
   version="1.1"
   id="SVGRoot"
   inkscape:version="0.92.2 (5c3e80d, 2017-08-06)"
   sodipodi:docname="clam-lema.svg"
   inkscape:export-filename="/home/vokimon/Documentos/clam-logo.png"
   inkscape:export-xdpi="96.000008"
   inkscape:export-ydpi="96.000008">
  <title
     id="title4889">CLAM Logo 2018</title>
  <sodipodi:namedview
     id="base"
     pagecolor="#ffffff"
     bordercolor="#666666"
     borderopacity="1.0"
     inkscape:pageopacity="0.0"
     inkscape:pageshadow="2"
     inkscape:zoom="0.70710678"
     inkscape:cx="-134.24091"
     inkscape:cy="84.162836"
     inkscape:document-units="px"
     inkscape:current-layer="layer5"
     showgrid="false"
     inkscape:window-width="1920"
     inkscape:window-height="1007"
     inkscape:window-x="0"
     inkscape:window-y="0"
     inkscape:window-maximized="1"
     inkscape:grid-bbox="true" />
  <defs
     id="defs90">
    <linearGradient
       inkscape:collect="always"
       id="linearGradient4719">
      <stop
         style="stop-color:#c2936b;stop-opacity:1"
         offset="0"
         id="stop4715" />
      <stop
         style="stop-color:#e2c391;stop-opacity:1"
         offset="1"
         id="stop4717" />
    </linearGradient>
    <linearGradient
       inkscape:collect="always"
       id="linearGradient4705">
      <stop
         style="stop-color:#a7b4bb;stop-opacity:1"
         offset="0"
         id="stop4701" />
      <stop
         style="stop-color:#d3efed;stop-opacity:1"
         offset="1"
         id="stop4703" />
    </linearGradient>
    <linearGradient
       inkscape:collect="always"
       xlink:href="#linearGradient4705"
       id="linearGradient4707"
       x1="39.594425"
       y1="133.33305"
       x2="220.61732"
       y2="49.171265"
       gradientUnits="userSpaceOnUse"
       gradientTransform="translate(0,-24)" />
    <linearGradient
       inkscape:collect="always"
       xlink:href="#linearGradient4719"
       id="linearGradient4721"
       x1="39.654846"
       y1="157.17488"
       x2="181.87122"
       y2="208.26335"
       gradientUnits="userSpaceOnUse"
       gradientTransform="translate(0,-24)" />
  </defs>
  <metadata
     id="metadata93">
    <rdf:RDF>
      <cc:Work
         rdf:about="">
        <dc:format>image/svg+xml</dc:format>
        <dc:type
           rdf:resource="http://purl.org/dc/dcmitype/StillImage" />
        <dc:title>CLAM Logo 2018</dc:title>
        <dc:creator>
          <cc:Agent>
            <dc:title>David García Garzón</dc:title>
          </cc:Agent>
        </dc:creator>
        <dc:rights>
          <cc:Agent>
            <dc:title>CLAM-Project.org</dc:title>
          </cc:Agent>
        </dc:rights>
        <cc:license
           rdf:resource="http://creativecommons.org/licenses/by-sa/4.0/" />
      </cc:Work>
      <cc:License
         rdf:about="http://creativecommons.org/licenses/by-sa/4.0/">
        <cc:permits
           rdf:resource="http://creativecommons.org/ns#Reproduction" />
        <cc:permits
           rdf:resource="http://creativecommons.org/ns#Distribution" />
        <cc:requires
           rdf:resource="http://creativecommons.org/ns#Notice" />
        <cc:requires
           rdf:resource="http://creativecommons.org/ns#Attribution" />
        <cc:permits
           rdf:resource="http://creativecommons.org/ns#DerivativeWorks" />
        <cc:requires
           rdf:resource="http://creativecommons.org/ns#ShareAlike" />
      </cc:License>
    </rdf:RDF>
  </metadata>
  <g
     inkscape:groupmode="layer"
     id="layer2"
     inkscape:label="Fill"
     style="display:inline">
    <path
       style="fill:url(#linearGradient4707);fill-opacity:1;stroke:#000000;stroke-width:1px;stroke-linecap:butt;stroke-linejoin:miter;stroke-opacity:1"
       d="M 20.807612,118.76777 C 39.545942,70.33095 89.449008,-10.184073 220.61732,25.171266 200.81833,58.051731 123.69164,131.49568 20.807612,118.76777 Z"
       id="path4699"
       inkscape:connector-curvature="0"
       sodipodi:nodetypes="ccc" />
    <path
       style="fill:url(#linearGradient4721);fill-opacity:1;stroke:#000000;stroke-width:1px;stroke-linecap:butt;stroke-linejoin:miter;stroke-opacity:1"
       d="M 208.24295,199.64987 C 179.0748,147.8543 128.9684,123.99449 101.11627,114.4435 c -25.632621,7.07106 -47.906484,9.72272 -77.604969,8.3085 3.712311,14.67247 64.321362,77.78175 184.731649,76.89787 z"
       id="path4713"
       inkscape:connector-curvature="0"
       sodipodi:nodetypes="cccc" />
  </g>
  <g
     inkscape:groupmode="layer"
     id="layer3"
     inkscape:label="Contour"
     style="display:inline">
    <path
       style="display:inline;fill:#241f1c;fill-opacity:1;stroke:none;stroke-width:1px;stroke-linecap:butt;stroke-linejoin:miter;stroke-opacity:1"
       d="M 163.79883,7.410156 C 110.33356,7.744823 54.8616,16.11639 20.807612,118.76777 56.162951,187.71067 146.95118,204.90265 219.55664,206.54492 192.38147,152.51428 136.88101,121.32686 113.16992,114.54297 171.15731,94.68614 229.98181,54.78377 238.75781,22.767578 217.59128,14.975707 191.80445,7.234855 163.79883,7.410156 Z m -13.21875,12.800782 c 12.58324,-0.0011 24.90387,1.421578 36.39648,3.43164 -30.2542,38.483993 -69.07259,60.353942 -154.501686,92.650312 1.060895,-3.23852 -0.307179,-5.65788 0.83372,-8.69523 34.911895,-15.69189 86.447246,-48.242256 105.916016,-86.966801 3.79843,-0.277789 7.58899,-0.41959 11.35547,-0.419921 z m -19.78516,1.292968 C 119.89975,44.937094 80.821443,80.50766 35.1875,102.75781 57.752418,46.824022 94.142691,26.435683 130.79492,21.503906 Z m 64.34375,3.705078 C 201.05232,26.409948 206.72445,27.70633 212,29 192.13141,63.413396 128.44717,121.83213 37.390625,117.47656 60.165214,108.19334 147.30477,83.68113 195.13867,25.208984 Z m -93.36328,92.986326 c 44.77764,12.10965 72.66134,42.72474 94.09375,74.91407 -69.73464,0.34521 -153.127561,-41.10551 -160.132471,-67.41602 19.397914,3.2971 40.722902,0.0114 66.038721,-7.49805 z"
       id="path171"
       inkscape:connector-curvature="0"
       sodipodi:nodetypes="sccccssccccsccccccccccc" />
  </g>
  <g
     inkscape:groupmode="layer"
     id="layer5"
     inkscape:label="Lema"
     style="display:inline">
    <g
       aria-label="The Audio Framework"
       transform="translate(0,-24)"
       style="font-style:normal;font-weight:normal;font-size:40px;line-height:1.25;font-family:sans-serif;text-align:center;letter-spacing:0px;word-spacing:0px;text-anchor:middle;display:inline;fill:#000000;fill-opacity:1;stroke:none"
       id="flowRoot832">
      <path
         d="m 35.40918,242.43164 h 24.667968 v 3.32031 H 49.725586 V 271.5918 H 45.760742 V 245.75195 H 35.40918 Z"
         style=""
         id="path32" />
      <path
         d="m 81.932617,258.38867 v 13.20313 h -3.59375 v -13.08594 q 0,-3.10547 -1.210937,-4.64844 -1.210938,-1.54297 -3.632813,-1.54297 -2.910156,0 -4.589844,1.85547 -1.679687,1.85547 -1.679687,5.0586 v 12.36328 h -3.613281 v -30.39063 h 3.613281 v 11.91406 q 1.289062,-1.97265 3.027344,-2.94921 1.757812,-0.97657 4.042968,-0.97657 3.769532,0 5.703125,2.34375 1.933594,2.32422 1.933594,6.85547 z"
         style=""
         id="path34" />
      <path
         d="m 107.85059,259.75586 v 1.75781 H 91.327148 q 0.234375,3.71094 2.226563,5.66406 2.011719,1.9336 5.585937,1.9336 2.070312,0 4.003902,-0.50781 1.95313,-0.50782 3.86719,-1.52344 v 3.39844 q -1.93359,0.82031 -3.96484,1.25 -2.03125,0.42968 -4.121095,0.42968 -5.234375,0 -8.300782,-3.04687 -3.046875,-3.04688 -3.046875,-8.24219 0,-5.37109 2.890625,-8.51562 2.910157,-3.16407 7.832032,-3.16407 4.414065,0 6.972655,2.85157 2.57813,2.83203 2.57813,7.71484 z m -3.59375,-1.05469 q -0.0391,-2.94922 -1.66016,-4.70703 -1.60156,-1.75781 -4.257813,-1.75781 -3.007812,0 -4.824219,1.69922 -1.796875,1.69922 -2.070312,4.78515 z"
         style=""
         id="path36" />
      <path
         d="m 136.38574,246.31836 -5.35156,14.51172 h 10.72266 z m -2.22656,-3.88672 h 4.47266 l 11.11328,29.16016 h -4.10157 l -2.65625,-7.48047 h -13.14453 l -2.65625,7.48047 h -4.16015 z"
         style=""
         id="path38" />
      <path
         d="M 153.45605,262.95898 V 249.7168 h 3.59375 v 13.10547 q 0,3.10546 1.21094,4.66796 1.21094,1.54297 3.63281,1.54297 2.91016,0 4.58985,-1.85547 1.69922,-1.85546 1.69922,-5.05859 V 249.7168 h 3.59375 v 21.875 h -3.59375 v -3.35938 q -1.3086,1.99219 -3.04688,2.96875 -1.71875,0.95703 -4.0039,0.95703 -3.76954,0 -5.72266,-2.34375 -1.95313,-2.34375 -1.95313,-6.85547 z m 9.04297,-13.76953 z"
         style=""
         id="path40" />
      <path
         d="m 193.6123,253.03711 v -11.83594 h 3.59375 v 30.39063 h -3.59375 v -3.28125 q -1.13281,1.95312 -2.87109,2.91015 -1.71875,0.9375 -4.14062,0.9375 -3.96485,0 -6.46485,-3.16406 -2.48047,-3.16406 -2.48047,-8.32031 0,-5.15625 2.48047,-8.32031 2.5,-3.16407 6.46485,-3.16407 2.42187,0 4.14062,0.95703 1.73828,0.9375 2.87109,2.89063 z m -12.24609,7.63672 q 0,3.96484 1.62109,6.23047 1.64063,2.24609 4.49219,2.24609 2.85156,0 4.49219,-2.24609 1.64062,-2.26563 1.64062,-6.23047 0,-3.96485 -1.64062,-6.21094 -1.64063,-2.26562 -4.49219,-2.26562 -2.85156,0 -4.49219,2.26562 -1.62109,2.24609 -1.62109,6.21094 z"
         style=""
         id="path42" />
      <path
         d="m 204.6084,249.7168 h 3.59375 v 21.875 h -3.59375 z m 0,-8.51563 h 3.59375 v 4.55078 h -3.59375 z"
         style=""
         id="path44" />
      <path
         d="m 224.17871,252.23633 q -2.89062,0 -4.57031,2.26562 -1.67969,2.2461 -1.67969,6.17188 0,3.92578 1.66016,6.1914 1.67968,2.2461 4.58984,2.2461 2.87109,0 4.55078,-2.26563 1.67969,-2.26562 1.67969,-6.17187 0,-3.88672 -1.67969,-6.15235 -1.67969,-2.28515 -4.55078,-2.28515 z m 0,-3.04688 q 4.6875,0 7.36328,3.04688 2.67578,3.04687 2.67578,8.4375 0,5.37109 -2.67578,8.4375 -2.67578,3.04687 -7.36328,3.04687 -4.70703,0 -7.38281,-3.04687 -2.65625,-3.06641 -2.65625,-8.4375 0,-5.39063 2.65625,-8.4375 2.67578,-3.04688 7.38281,-3.04688 z"
         style=""
         id="path46" />
      <path
         d="m 253.0459,242.43164 h 16.75781 v 3.32031 h -12.8125 v 8.59375 h 11.5625 v 3.32032 h -11.5625 v 13.92578 h -3.94531 z"
         style=""
         id="path48" />
      <path
         d="m 285.72168,253.07617 q -0.60547,-0.35156 -1.32813,-0.50781 -0.70312,-0.17578 -1.5625,-0.17578 -3.04687,0 -4.6875,1.99219 -1.62109,1.97265 -1.62109,5.68359 v 11.52344 h -3.61328 v -21.875 h 3.61328 v 3.39843 q 1.13281,-1.99218 2.94922,-2.94921 1.81641,-0.97657 4.41406,-0.97657 0.3711,0 0.82031,0.0586 0.44922,0.0391 0.9961,0.13672 z"
         style=""
         id="path50" />
      <path
         d="m 299.47168,260.5957 q -4.35547,0 -6.03516,0.9961 -1.67968,0.99609 -1.67968,3.39843 0,1.91407 1.25,3.04688 1.26953,1.11328 3.4375,1.11328 2.98828,0 4.78515,-2.10937 1.81641,-2.12891 1.81641,-5.64454 v -0.80078 z m 7.16797,-1.48437 v 12.48047 h -3.59375 v -3.32032 q -1.23047,1.99219 -3.06641,2.94922 -1.83594,0.9375 -4.49219,0.9375 -3.35937,0 -5.35156,-1.875 -1.97265,-1.89453 -1.97265,-5.05859 0,-3.69141 2.46093,-5.56641 2.48047,-1.875 7.38282,-1.875 h 5.03906 v -0.35156 q 0,-2.48047 -1.64063,-3.82812 -1.62109,-1.36719 -4.57031,-1.36719 -1.875,0 -3.65234,0.44922 -1.77735,0.44922 -3.41797,1.34765 v -3.32031 q 1.97265,-0.76172 3.82812,-1.13281 1.85547,-0.39063 3.61328,-0.39063 4.7461,0 7.08985,2.46094 2.34375,2.46094 2.34375,7.46094 z"
         style=""
         id="path52" />
      <path
         d="m 331.09277,253.91602 q 1.34766,-2.42188 3.22266,-3.57422 1.875,-1.15235 4.41406,-1.15235 3.41797,0 5.27344,2.40235 1.85547,2.38281 1.85547,6.79687 v 13.20313 h -3.61328 v -13.08594 q 0,-3.14453 -1.11328,-4.66797 -1.11329,-1.52344 -3.39844,-1.52344 -2.79297,0 -4.41406,1.85547 -1.6211,1.85547 -1.6211,5.0586 v 12.36328 h -3.61328 v -13.08594 q 0,-3.16406 -1.11328,-4.66797 -1.11328,-1.52344 -3.4375,-1.52344 -2.75391,0 -4.375,1.875 -1.62109,1.85547 -1.62109,5.03907 v 12.36328 h -3.61329 v -21.875 h 3.61329 v 3.39843 q 1.23046,-2.01171 2.94921,-2.96875 1.71875,-0.95703 4.08204,-0.95703 2.38281,0 4.04296,1.21094 1.67969,1.21094 2.48047,3.51563 z"
         style=""
         id="path54" />
      <path
         d="m 371.75684,259.75586 v 1.75781 H 355.2334 q 0.23437,3.71094 2.22656,5.66406 2.01172,1.9336 5.58594,1.9336 2.07031,0 4.0039,-0.50781 1.95313,-0.50782 3.86719,-1.52344 v 3.39844 q -1.93359,0.82031 -3.96484,1.25 -2.03125,0.42968 -4.1211,0.42968 -5.23437,0 -8.30078,-3.04687 -3.04687,-3.04688 -3.04687,-8.24219 0,-5.37109 2.89062,-8.51562 2.91016,-3.16407 7.83203,-3.16407 4.41407,0 6.97266,2.85157 2.57813,2.83203 2.57813,7.71484 z m -3.59375,-1.05469 q -0.0391,-2.94922 -1.66016,-4.70703 -1.60156,-1.75781 -4.25781,-1.75781 -3.00782,0 -4.82422,1.69922 -1.79688,1.69922 -2.07031,4.78515 z"
         style=""
         id="path56" />
      <path
         d="m 375.56543,249.7168 h 3.59375 l 4.49219,17.07031 4.47265,-17.07031 h 4.23828 l 4.49219,17.07031 4.47266,-17.07031 h 3.59375 l -5.72266,21.875 h -4.23828 l -4.70703,-17.92969 -4.72656,17.92969 h -4.23828 z"
         style=""
         id="path58" />
      <path
         d="m 418.86621,252.23633 q -2.89062,0 -4.57031,2.26562 -1.67969,2.2461 -1.67969,6.17188 0,3.92578 1.66016,6.1914 1.67968,2.2461 4.58984,2.2461 2.87109,0 4.55078,-2.26563 1.67969,-2.26562 1.67969,-6.17187 0,-3.88672 -1.67969,-6.15235 -1.67969,-2.28515 -4.55078,-2.28515 z m 0,-3.04688 q 4.6875,0 7.36328,3.04688 2.67578,3.04687 2.67578,8.4375 0,5.37109 -2.67578,8.4375 -2.67578,3.04687 -7.36328,3.04687 -4.70703,0 -7.38281,-3.04687 -2.65625,-3.06641 -2.65625,-8.4375 0,-5.39063 2.65625,-8.4375 2.67578,-3.04688 7.38281,-3.04688 z"
         style=""
         id="path60" />
      <path
         d="m 447.51855,253.07617 q -0.60546,-0.35156 -1.32812,-0.50781 -0.70313,-0.17578 -1.5625,-0.17578 -3.04688,0 -4.6875,1.99219 -1.62109,1.97265 -1.62109,5.68359 v 11.52344 h -3.61329 v -21.875 h 3.61329 v 3.39843 q 1.13281,-1.99218 2.94921,-2.94921 1.81641,-0.97657 4.41407,-0.97657 0.37109,0 0.82031,0.0586 0.44922,0.0391 0.99609,0.13672 z"
         style=""
         id="path62" />
      <path
         d="m 451.19043,241.20117 h 3.61328 v 17.94922 l 10.72266,-9.43359 h 4.58984 l -11.60156,10.23437 12.08984,11.64063 h -4.6875 l -11.11328,-10.6836 v 10.6836 h -3.61328 z"
         style=""
         id="path64" />
    </g>
  </g>
  <g
     inkscape:groupmode="layer"
     id="layer4"
     inkscape:label="Letters">
    <path
       style="opacity:1;vector-effect:none;fill:#000000;fill-opacity:1;stroke:#000000;stroke-width:10.9617033;stroke-linecap:round;stroke-linejoin:bevel;stroke-miterlimit:4;stroke-dasharray:none;stroke-dashoffset:0;stroke-opacity:1"
       d="m 362.52649,141.07132 c -18.43764,5.54654 -39.8779,8.73078 -57.23048,12.99829 18.42847,-2.56069 37.32824,-2.56158 55.66222,-4.75025 0.43082,-2.1671 3.52906,-7.11793 1.56826,-8.24804 z"
       id="path4807"
       inkscape:connector-curvature="0" />
    <path
       style="opacity:1;vector-effect:none;fill:#000000;fill-opacity:1;stroke:#000000;stroke-width:10.9617033;stroke-linecap:round;stroke-linejoin:bevel;stroke-miterlimit:4;stroke-dasharray:none;stroke-dashoffset:0;stroke-opacity:1"
       d="m 236.15906,95.55815 c 0.1325,32.3594 -2.18969,64.8834 -3.01071,97.30653 15.45057,-1.4514 30.90115,-2.90278 46.35172,-4.35418 1.73504,-5.48228 4.45443,-10.60682 6.05356,-16.13479 -14.32252,3.49138 -28.48104,10.00062 -42.90746,11.57991 -9.20886,-7.28626 -0.80344,-19.20167 -1.74202,-28.5964 2.17372,-18.49776 4.71112,-37.22043 6.6582,-55.57802 -3.83422,-1.26878 -7.35024,-3.7271 -11.40329,-4.22305 z"
       id="path4801"
       inkscape:connector-curvature="0" />
    <path
       style="opacity:1;vector-effect:none;fill:#000000;fill-opacity:1;stroke:#000000;stroke-width:10.9617033;stroke-linecap:round;stroke-linejoin:bevel;stroke-miterlimit:4;stroke-dasharray:none;stroke-dashoffset:0;stroke-opacity:1"
       d="m 357.75391,91.8543 c -6.45071,0.44315 -5.31141,9.52263 -9.16601,13.22787 -15.41101,30.20771 -36.93859,70.7234 -46.47213,90.76379 9.69126,2.27991 11.1067,-14.52782 16.73316,-21.08353 12.57939,-22.87689 25.15877,-45.75375 37.73816,-68.63063 6.30997,-4.45044 12.24959,4.63328 10.15081,10.4907 -3.00892,22.3805 -2.98639,45.16961 -5.16662,67.70945 -0.25587,3.08226 -2.32488,13.97984 2.86241,9.58447 2.09561,-14.72819 1.02162,-30.03497 2.2623,-44.95326 0.57776,-18.63133 1.87456,-37.93213 2.00625,-56.14811 -3.6662,-0.1188 -7.27189,-1.0869 -10.94833,-0.96075 z"
       id="path4803"
       inkscape:connector-curvature="0"
       sodipodi:nodetypes="ccccccccccc" />
    <path
       style="fill:#000000;stroke:#000000;stroke-width:10.9617033;stroke-linecap:round;stroke-linejoin:bevel;stroke-miterlimit:4;stroke-dasharray:none;stroke-opacity:1"
       d="m 478.06594,92.59201 c -6.68767,7.07654 -11.81858,17.80124 -11.81858,17.80124 -7.03465,13.25195 -12.53934,29.96391 -21.52635,41.66679 -8.26076,3.03479 -9.32996,-5.09372 -11.18163,-12.60515 -3.08171,-15.47369 -8.56738,-30.96488 -12.22755,-46.13763 0,0 -13.30593,-4.50678 -13.58973,3.98753 -5.60211,29.28553 -14.75317,67.03002 -18.24096,86.96303 0,0 10.59027,1.48474 9.40684,-5.55846 2.43038,-21.61178 5.37992,-43.19715 8.00985,-64.79877 4.18375,-6.44587 13.05807,-0.33167 13.41577,5.8475 3.32366,14.36403 9.5394,28.08637 14.04202,41.94671 5.00879,1.95121 11.37101,2.92785 14.29892,-3.57272 6.41937,-12.61482 11.10641,-26.84429 18.581,-38.47551 6.16912,-3.13667 10.97932,5.73401 8.60114,11.0766 -4.40689,21.17722 -5.72943,42.96621 -9.30247,64.35986 5.75891,3.50766 8.67784,-3.15259 7.61646,-7.88675 2.06545,-31.3034 6.56203,-63.31542 8.49425,-94.14326 -1.49559,-0.35301 -3.03981,-0.57273 -4.57898,-0.47101 z"
       id="path4805"
       inkscape:connector-curvature="0"
       sodipodi:nodetypes="cccccccccccccccccc" />
  </g>
  <g
     id="layer1"
     inkscape:groupmode="layer"
     inkscape:label="Original Raster"
     style="display:none">
    <image
       sodipodi:absref="/home/vokimon/Imágenes/clam-logo.jpeg"
       y="27"
       x="7"
       id="image168"
       xlink:href="file:///home/vokimon/Im%C3%A1genes/clam-logo.jpeg"
       preserveAspectRatio="none"
       height="225"
       width="225" />
  </g>
</svg>
